<svg width="55" height="55" viewBox="0 0 30 30" fill="#BEAE81" xmlns="http://www.w3.org/2000/svg">
<path d="M18.78 8.19442V8.17742C18.78 7.60342 17.276 7.10142 15.077 6.85742C15.6 7.20942 16.063 7.65042 16.449 8.16042L16.534 8.17742L16.474 8.19042C15.0132 8.46383 13.5291 8.59311 12.043 8.57642C10.286 8.57642 8.717 8.42642 7.599 8.19042L7.569 8.18142H7.547L7.62 8.16442C8.00229 7.65657 8.46547 7.21502 8.991 6.85742C6.806 7.10142 5.301 7.60342 5.301 8.17742C5.301 8.90142 8.563 9.47142 10.766 9.63442C11.254 9.66942 12.026 9.66942 12.026 9.66942C12.3 9.68142 12.797 9.66942 13.286 9.63442C15.497 9.48042 18.75 8.91042 18.78 8.19442ZM18.137 11.2414C17.977 11.2081 17.817 11.1768 17.657 11.1474C17.6116 10.7603 17.5285 10.3785 17.409 10.0074C19.586 10.3634 21 10.9294 21 11.5714V11.5934C20.949 12.6644 16.937 13.5304 12 13.5304C7.029 13.5304 3 12.6514 3 11.5714V11.5504C3.03 10.9114 4.466 10.3504 6.669 9.99442C6.54941 10.3641 6.46602 10.7446 6.42 11.1304C6.01733 11.2051 5.61733 11.2951 5.22 11.4004C5.014 11.4564 4.83 11.5164 4.667 11.5714C5.22099 11.7641 5.79085 11.9076 6.37 12.0004C7.861 12.2794 9.828 12.4504 12.001 12.4504C14.0609 12.4658 16.1174 12.2823 18.142 11.9024C18.6227 11.7931 19.02 11.6831 19.334 11.5724C18.9439 11.4379 18.5458 11.3277 18.142 11.2424L18.137 11.2414ZM7.003 14.6804C5.944 14.9414 5.301 15.2884 5.301 15.6654V15.6874C5.357 16.4924 8.357 17.1444 12.043 17.1444C15.729 17.1444 18.729 16.4924 18.78 15.6874V15.6654C18.78 15.2844 18.137 14.9374 17.07 14.6804C16.9006 15.0215 16.7012 15.3468 16.474 15.6524L16.539 15.6654L16.453 15.6834H16.436C15.321 15.9134 13.774 16.0644 12.043 16.0644C10.311 16.0644 8.764 15.9144 7.646 15.6874H7.624L7.62 15.6784C7.594 15.6784 7.569 15.6704 7.547 15.6654L7.599 15.6524C7.36835 15.3492 7.16868 15.0235 7.003 14.6804Z" fill="currentColor"/>
</svg>
