<svg width="40" height="57" viewBox="0 0 40 57" fill="none" xmlns="http://www.w3.org/2000/svg">
<path d="M19.9632 34.2C23.7533 34.2 27.3881 32.6987 30.068 30.0263C32.748 27.3539 34.2536 23.7293 34.2536 19.95C34.2536 16.1707 32.748 12.5461 30.068 9.87375C27.3881 7.20136 23.7533 5.70002 19.9632 5.70002C16.1732 5.70002 12.5384 7.20136 9.85842 9.87375C7.17846 12.5461 5.67287 16.1707 5.67287 19.95C5.67287 23.7293 7.17846 27.3539 9.85842 30.0263C12.5384 32.6987 16.1732 34.2 19.9632 34.2ZM22.8213 45.6H25.6794C26.4374 45.6 27.1643 45.9003 27.7003 46.4347C28.2363 46.9692 28.5374 47.6941 28.5374 48.45C28.5374 49.2059 28.2363 49.9308 27.7003 50.4653C27.1643 50.9997 26.4374 51.3 25.6794 51.3H22.8213V54.15C22.8213 54.9059 22.5202 55.6308 21.9842 56.1653C21.4482 56.6997 20.7212 57 19.9632 57C19.2052 57 18.4783 56.6997 17.9423 56.1653C17.4063 55.6308 17.1052 54.9059 17.1052 54.15V51.3H14.2471C13.4891 51.3 12.7621 50.9997 12.2261 50.4653C11.6901 49.9308 11.389 49.2059 11.389 48.45C11.389 47.6941 11.6901 46.9692 12.2261 46.4347C12.7621 45.9003 13.4891 45.6 14.2471 45.6H17.1052V39.9C17.1052 39.8316 17.1071 39.7651 17.1109 39.7005C12.1127 38.9702 7.5764 36.382 4.41225 32.4554C1.24809 28.5287 -0.309791 23.554 0.0511962 18.5296C0.412184 13.5052 2.66534 8.80281 6.35853 5.36603C10.0517 1.92924 14.9117 0.0123605 19.9632 2.28344e-05C25.027 -0.00761246 29.9053 1.89981 33.6143 5.3376C37.3233 8.77539 39.587 13.4878 39.9488 18.5244C40.3107 23.5609 38.7438 28.547 35.5642 32.4769C32.3845 36.4068 27.8287 38.9882 22.8156 39.7005L22.8213 39.9V45.6Z" fill="#FF392E"/>
</svg>
