<svg width="22" height="22" viewBox="0 0 22 22" fill="none" xmlns="http://www.w3.org/2000/svg">
<path  fill-rule="evenodd" clip-rule="evenodd" d="M17.6658 21H14.9438C14.7594 21 13.7771 21 13.7771 19.8333V15.9998C13.7771 14.4653 12.5338 13.2219 10.9995 13.2219C9.4651 13.2219 8.22183 14.4653 8.22183 15.9998V19.8333C8.22183 21 7.23956 21 7.05513 21H4.33315C2.11105 21 1 19.8888 1 17.6665V10.6118C1 8.39173 1.58114 8.05067 2.58886 7.20619L9.21516 1.64919C10.2473 0.783603 11.7528 0.783603 12.785 1.64919L19.4113 7.20619C20.4179 8.05067 21 8.39173 21 10.6118V17.6665C20.9989 19.8888 19.8879 21 17.6658 21Z" stroke="#BEAE81" stroke-width="2" stroke-linecap="round" stroke-linejoin="round"/>
</svg>

