<svg width="22" height="24" viewBox="0 0 22 24" fill="none" xmlns="http://www.w3.org/2000/svg">
<path fill-rule="evenodd" clip-rule="evenodd" d="M9 0C6.23858 0 4 2.23858 4 5V7C1.79086 7 0 8.79086 0 11V20C0 22.2091 1.79086 24 4 24H18C20.2091 24 22 22.2091 22 20V11C22 8.79086 20.2091 7 18 7V5C18 2.23858 15.7614 0 13 0H9ZM16 7V5C16 3.34315 14.6569 2 13 2H9C7.34315 2 6 3.34315 6 5V7H16ZM2 11C2 9.89543 2.89543 9 4 9H18C19.1046 9 20 9.89543 20 11V20C20 21.1046 19.1046 22 18 22H4C2.89543 22 2 21.1046 2 20V11ZM12 15.7324C12.5978 15.3866 13 14.7403 13 14C13 12.8954 12.1046 12 11 12C9.89543 12 9 12.8954 9 14C9 14.7403 9.4022 15.3866 10 15.7324V18C10 18.5523 10.4477 19 11 19C11.5523 19 12 18.5523 12 18V15.7324Z" fill="#443B21" fill-opacity="0.6"/>
</svg>
