<svg width="51" height="51" viewBox="0 0 51 51" fill="none" xmlns="http://www.w3.org/2000/svg">
<path d="M34.3163 0.71875V5.96094H41.3325L34.1376 13.1558C26.0122 6.85807 14.2411 7.43709 6.79004 14.8917C-1.29246 22.9754 -1.29246 36.1262 6.79481 44.2051C10.6854 48.084 15.9552 50.2622 21.4491 50.2622C26.943 50.2622 32.2128 48.084 36.1034 44.2051C43.558 36.7493 44.1371 24.9829 37.8393 16.8575L45.0389 9.6674V16.6836H50.2811V0.71875H34.3163ZM32.4005 40.5022C29.4939 43.4027 25.5554 45.0317 21.4491 45.0317C17.3428 45.0317 13.4043 43.4027 10.4977 40.5022C4.45846 34.4641 4.45846 24.6374 10.4977 18.5994C16.5369 12.5613 26.3625 12.5601 32.4005 18.5994C38.4386 24.6386 38.4398 34.4641 32.4005 40.5022Z" fill="#1167B1"/>
</svg>
