<svg width="30" height="30" viewBox="0 0 24 24" fill="none" xmlns="http://www.w3.org/2000/svg">
<path d="M11.995 15.0805C13.651 15.0805 14.9935 13.7287 14.9935 12.0611C14.9935 10.3935 13.651 9.04168 11.995 9.04168C10.339 9.04168 8.9965 10.3935 8.9965 12.0611C8.9965 13.7287 10.339 15.0805 11.995 15.0805Z" stroke="#BEAE81" stroke-width="1.5" stroke-miterlimit="10" stroke-linecap="round" stroke-linejoin="round"/>
<path d="M2 12.9468V11.1754C2 10.1287 2.84958 9.2631 3.89905 9.2631C5.70815 9.2631 6.44778 7.97482 5.53823 6.39465C5.01849 5.48883 5.32834 4.31125 6.23788 3.78789L7.96702 2.79148C8.75662 2.31844 9.77611 2.60025 10.2459 3.39536L10.3558 3.58659C11.2554 5.16676 12.7346 5.16676 13.6442 3.58659L13.7541 3.39536C14.2239 2.60025 15.2434 2.31844 16.033 2.79148L17.7621 3.78789C18.6717 4.31125 18.9815 5.48883 18.4618 6.39465C17.5522 7.97482 18.2919 9.2631 20.1009 9.2631C21.1404 9.2631 22 10.1186 22 11.1754V12.9468C22 13.9935 21.1504 14.8591 20.1009 14.8591C18.2919 14.8591 17.5522 16.1474 18.4618 17.7275C18.9815 18.6434 18.6717 19.8109 17.7621 20.3343L16.033 21.3307C15.2434 21.8038 14.2239 21.5219 13.7541 20.7268L13.6442 20.5356C12.7446 18.9554 11.2654 18.9554 10.3558 20.5356L10.2459 20.7268C9.77611 21.5219 8.75662 21.8038 7.96702 21.3307L6.23788 20.3343C5.32834 19.8109 5.01849 18.6334 5.53823 17.7275C6.44778 16.1474 5.70815 14.8591 3.89905 14.8591C2.84958 14.8591 2 13.9935 2 12.9468Z" stroke="#BEAE81" stroke-width="1.5" stroke-miterlimit="10" stroke-linecap="round" stroke-linejoin="round"/>
</svg>
